# xmcd CD database file
#
# Track frame offsets:
#	150
#	13950
#	27322
#	41155
#	55145
#	68347
#	80592
#	92857
#	106372
#	120160
#	133840
#	154012
#	166852
#	181155
#	195447
#	211285
#	227822
#
# Disc length: 3265 seconds
#
# Revision: 0
# Processed by: cddbd v1.5.1PL0 Copyright (c) Steve Scherf et al.
# Submitted via: CDex 1.51
#
DISCID=da0cbf11
DTITLE=Thelonious Monk - More Genius Of Thelonious (BN 1604)
DYEAR=1900
DGENRE=Jazz
TTITLE0=Evonce
TTITLE1=Suburban Eyes
TTITLE2=Nice Work If You Can Get It
TTITLE3=Ruby My Dear
TTITLE4=Well You Needn't
TTITLE5=April In Paris
TTITLE6=Who Knows
TTITLE7=All The Things You Are
TTITLE8=I Should Care (Alternate Master)
TTITLE9=I Should Care
TTITLE10=Ask Me Now
TTITLE11=Criss Cross
TTITLE12=Skippy
TTITLE13=Hornin'In
TTITLE14=Sixteen (Take 1)
TTITLE15=Sixteen (Take 2)
TTITLE16=I'll Follow You
EXTD=
EXTT0=
EXTT1=
EXTT2=
EXTT3=
EXTT4=
EXTT5=
EXTT6=
EXTT7=
EXTT8=
EXTT9=
EXTT10=
EXTT11=
EXTT12=
EXTT13=
EXTT14=
EXTT15=
EXTT16=
PLAYORDER=
